<svg xmlns="http://www.w3.org/2000/svg" viewBox="0 0 400 300">
<rect width="400" height="300" fill="#0d0a12"/>
<rect width="400" height="300" fill="url(#g-ambient-purple)" opacity="0.5"/>
<defs><radialGradient id="g-ambient-purple" cx="0.3" cy="0.2" r="1"><stop offset="0" stop-color="#4c1d95" stop-opacity="0.6"/><stop offset="1" stop-color="#0d0a12" stop-opacity="0"/></radialGradient></defs>
<g transform="translate(0,75)"><rect x="20" y="106" width="12" height="88" rx="6" fill="#a78bfa" opacity="0.50"/><rect x="42" y="131" width="12" height="38" rx="6" fill="#a78bfa" opacity="0.36"/><rect x="64" y="112" width="12" height="76" rx="6" fill="#a78bfa" opacity="0.47"/><rect x="86" y="113" width="12" height="74" rx="6" fill="#a78bfa" opacity="0.46"/><rect x="108" y="59" width="12" height="182" rx="6" fill="#a78bfa" opacity="0.77"/><rect x="130" y="131" width="12" height="38" rx="6" fill="#a78bfa" opacity="0.36"/><rect x="152" y="110" width="12" height="80" rx="6" fill="#a78bfa" opacity="0.48"/><rect x="174" y="73" width="12" height="154" rx="6" fill="#a78bfa" opacity="0.69"/><rect x="196" y="82" width="12" height="136" rx="6" fill="#a78bfa" opacity="0.64"/><rect x="218" y="57" width="12" height="186" rx="6" fill="#a78bfa" opacity="0.79"/><rect x="240" y="103" width="12" height="94" rx="6" fill="#a78bfa" opacity="0.52"/><rect x="262" y="89" width="12" height="122" rx="6" fill="#a78bfa" opacity="0.60"/><rect x="284" y="105" width="12" height="90" rx="6" fill="#a78bfa" opacity="0.51"/><rect x="306" y="107" width="12" height="86" rx="6" fill="#a78bfa" opacity="0.50"/><rect x="328" y="121" width="12" height="58" rx="6" fill="#a78bfa" opacity="0.42"/><rect x="350" y="57" width="12" height="186" rx="6" fill="#a78bfa" opacity="0.79"/><rect x="372" y="106" width="12" height="88" rx="6" fill="#a78bfa" opacity="0.50"/></g>
<text x="24" y="272" font-family="monospace" font-size="13" fill="#a78bfa" opacity="0.85">~/garden/media</text>
<text x="376" y="272" font-family="monospace" font-size="13" fill="#a78bfa" opacity="0.5" text-anchor="end">ambient-purple</text>
</svg>