<svg xmlns="http://www.w3.org/2000/svg" viewBox="0 0 400 300">
<rect width="400" height="300" fill="#0d0a08"/>
<rect width="400" height="300" fill="url(#g-book-spine)" opacity="0.5"/>
<defs><radialGradient id="g-book-spine" cx="0.3" cy="0.2" r="1"><stop offset="0" stop-color="#7c2d12" stop-opacity="0.6"/><stop offset="1" stop-color="#0d0a08" stop-opacity="0"/></radialGradient></defs>
<g transform="translate(0,75)"><rect x="20" y="100" width="12" height="100" rx="6" fill="#f97316" opacity="0.54"/><rect x="42" y="74" width="12" height="152" rx="6" fill="#f97316" opacity="0.69"/><rect x="64" y="102" width="12" height="96" rx="6" fill="#f97316" opacity="0.53"/><rect x="86" y="119" width="12" height="62" rx="6" fill="#f97316" opacity="0.43"/><rect x="108" y="67" width="12" height="166" rx="6" fill="#f97316" opacity="0.73"/><rect x="130" y="59" width="12" height="182" rx="6" fill="#f97316" opacity="0.77"/><rect x="152" y="130" width="12" height="40" rx="6" fill="#f97316" opacity="0.37"/><rect x="174" y="68" width="12" height="164" rx="6" fill="#f97316" opacity="0.72"/><rect x="196" y="121" width="12" height="58" rx="6" fill="#f97316" opacity="0.42"/><rect x="218" y="62" width="12" height="176" rx="6" fill="#f97316" opacity="0.76"/><rect x="240" y="50" width="12" height="200" rx="6" fill="#f97316" opacity="0.83"/><rect x="262" y="43" width="12" height="214" rx="6" fill="#f97316" opacity="0.87"/><rect x="284" y="42" width="12" height="216" rx="6" fill="#f97316" opacity="0.87"/><rect x="306" y="51" width="12" height="198" rx="6" fill="#f97316" opacity="0.82"/><rect x="328" y="125" width="12" height="50" rx="6" fill="#f97316" opacity="0.39"/><rect x="350" y="91" width="12" height="118" rx="6" fill="#f97316" opacity="0.59"/><rect x="372" y="128" width="12" height="44" rx="6" fill="#f97316" opacity="0.38"/></g>
<text x="24" y="272" font-family="monospace" font-size="13" fill="#f97316" opacity="0.85">~/garden/media</text>
<text x="376" y="272" font-family="monospace" font-size="13" fill="#f97316" opacity="0.5" text-anchor="end">book-spine</text>
</svg>