<svg xmlns="http://www.w3.org/2000/svg" viewBox="0 0 400 300">
<rect width="400" height="300" fill="#120a0a"/>
<rect width="400" height="300" fill="url(#g-film-red)" opacity="0.5"/>
<defs><radialGradient id="g-film-red" cx="0.3" cy="0.2" r="1"><stop offset="0" stop-color="#7f1d1d" stop-opacity="0.6"/><stop offset="1" stop-color="#120a0a" stop-opacity="0"/></radialGradient></defs>
<g transform="translate(0,75)"><rect x="20" y="99" width="12" height="102" rx="6" fill="#f87171" opacity="0.54"/><rect x="42" y="43" width="12" height="214" rx="6" fill="#f87171" opacity="0.87"/><rect x="64" y="80" width="12" height="140" rx="6" fill="#f87171" opacity="0.65"/><rect x="86" y="98" width="12" height="104" rx="6" fill="#f87171" opacity="0.55"/><rect x="108" y="88" width="12" height="124" rx="6" fill="#f87171" opacity="0.61"/><rect x="130" y="133" width="12" height="34" rx="6" fill="#f87171" opacity="0.35"/><rect x="152" y="113" width="12" height="74" rx="6" fill="#f87171" opacity="0.46"/><rect x="174" y="71" width="12" height="158" rx="6" fill="#f87171" opacity="0.71"/><rect x="196" y="43" width="12" height="214" rx="6" fill="#f87171" opacity="0.87"/><rect x="218" y="89" width="12" height="122" rx="6" fill="#f87171" opacity="0.60"/><rect x="240" y="74" width="12" height="152" rx="6" fill="#f87171" opacity="0.69"/><rect x="262" y="124" width="12" height="52" rx="6" fill="#f87171" opacity="0.40"/><rect x="284" y="96" width="12" height="108" rx="6" fill="#f87171" opacity="0.56"/><rect x="306" y="99" width="12" height="102" rx="6" fill="#f87171" opacity="0.54"/><rect x="328" y="135" width="12" height="30" rx="6" fill="#f87171" opacity="0.34"/><rect x="350" y="100" width="12" height="100" rx="6" fill="#f87171" opacity="0.54"/><rect x="372" y="98" width="12" height="104" rx="6" fill="#f87171" opacity="0.55"/></g>
<text x="24" y="272" font-family="monospace" font-size="13" fill="#f87171" opacity="0.85">~/garden/media</text>
<text x="376" y="272" font-family="monospace" font-size="13" fill="#f87171" opacity="0.5" text-anchor="end">film-red</text>
</svg>