<svg xmlns="http://www.w3.org/2000/svg" viewBox="0 0 400 300">
<rect width="400" height="300" fill="#081011"/>
<rect width="400" height="300" fill="url(#g-keyboard-teal)" opacity="0.5"/>
<defs><radialGradient id="g-keyboard-teal" cx="0.3" cy="0.2" r="1"><stop offset="0" stop-color="#115e59" stop-opacity="0.6"/><stop offset="1" stop-color="#081011" stop-opacity="0"/></radialGradient></defs>
<g transform="translate(0,75)"><rect x="20" y="79" width="12" height="142" rx="6" fill="#2dd4bf" opacity="0.66"/><rect x="42" y="123" width="12" height="54" rx="6" fill="#2dd4bf" opacity="0.41"/><rect x="64" y="108" width="12" height="84" rx="6" fill="#2dd4bf" opacity="0.49"/><rect x="86" y="40" width="12" height="220" rx="6" fill="#2dd4bf" opacity="0.88"/><rect x="108" y="114" width="12" height="72" rx="6" fill="#2dd4bf" opacity="0.46"/><rect x="130" y="91" width="12" height="118" rx="6" fill="#2dd4bf" opacity="0.59"/><rect x="152" y="83" width="12" height="134" rx="6" fill="#2dd4bf" opacity="0.64"/><rect x="174" y="97" width="12" height="106" rx="6" fill="#2dd4bf" opacity="0.56"/><rect x="196" y="45" width="12" height="210" rx="6" fill="#2dd4bf" opacity="0.86"/><rect x="218" y="105" width="12" height="90" rx="6" fill="#2dd4bf" opacity="0.51"/><rect x="240" y="78" width="12" height="144" rx="6" fill="#2dd4bf" opacity="0.67"/><rect x="262" y="71" width="12" height="158" rx="6" fill="#2dd4bf" opacity="0.71"/><rect x="284" y="51" width="12" height="198" rx="6" fill="#2dd4bf" opacity="0.82"/><rect x="306" y="49" width="12" height="202" rx="6" fill="#2dd4bf" opacity="0.83"/><rect x="328" y="56" width="12" height="188" rx="6" fill="#2dd4bf" opacity="0.79"/><rect x="350" y="54" width="12" height="192" rx="6" fill="#2dd4bf" opacity="0.80"/><rect x="372" y="124" width="12" height="52" rx="6" fill="#2dd4bf" opacity="0.40"/></g>
<text x="24" y="272" font-family="monospace" font-size="13" fill="#2dd4bf" opacity="0.85">~/garden/media</text>
<text x="376" y="272" font-family="monospace" font-size="13" fill="#2dd4bf" opacity="0.5" text-anchor="end">keyboard-teal</text>
</svg>