<svg xmlns="http://www.w3.org/2000/svg" viewBox="0 0 400 300">
<rect width="400" height="300" fill="#0a0d12"/>
<rect width="400" height="300" fill="url(#g-sql-glow)" opacity="0.5"/>
<defs><radialGradient id="g-sql-glow" cx="0.3" cy="0.2" r="1"><stop offset="0" stop-color="#1e3a8a" stop-opacity="0.6"/><stop offset="1" stop-color="#0a0d12" stop-opacity="0"/></radialGradient></defs>
<g transform="translate(0,75)"><rect x="20" y="108" width="12" height="84" rx="6" fill="#60a5fa" opacity="0.49"/><rect x="42" y="61" width="12" height="178" rx="6" fill="#60a5fa" opacity="0.76"/><rect x="64" y="112" width="12" height="76" rx="6" fill="#60a5fa" opacity="0.47"/><rect x="86" y="119" width="12" height="62" rx="6" fill="#60a5fa" opacity="0.43"/><rect x="108" y="100" width="12" height="100" rx="6" fill="#60a5fa" opacity="0.54"/><rect x="130" y="125" width="12" height="50" rx="6" fill="#60a5fa" opacity="0.39"/><rect x="152" y="70" width="12" height="160" rx="6" fill="#60a5fa" opacity="0.71"/><rect x="174" y="47" width="12" height="206" rx="6" fill="#60a5fa" opacity="0.84"/><rect x="196" y="132" width="12" height="36" rx="6" fill="#60a5fa" opacity="0.35"/><rect x="218" y="127" width="12" height="46" rx="6" fill="#60a5fa" opacity="0.38"/><rect x="240" y="67" width="12" height="166" rx="6" fill="#60a5fa" opacity="0.73"/><rect x="262" y="70" width="12" height="160" rx="6" fill="#60a5fa" opacity="0.71"/><rect x="284" y="130" width="12" height="40" rx="6" fill="#60a5fa" opacity="0.37"/><rect x="306" y="101" width="12" height="98" rx="6" fill="#60a5fa" opacity="0.53"/><rect x="328" y="52" width="12" height="196" rx="6" fill="#60a5fa" opacity="0.82"/><rect x="350" y="128" width="12" height="44" rx="6" fill="#60a5fa" opacity="0.38"/><rect x="372" y="103" width="12" height="94" rx="6" fill="#60a5fa" opacity="0.52"/></g>
<text x="24" y="272" font-family="monospace" font-size="13" fill="#60a5fa" opacity="0.85">~/garden/media</text>
<text x="376" y="272" font-family="monospace" font-size="13" fill="#60a5fa" opacity="0.5" text-anchor="end">sql-glow</text>
</svg>