<svg xmlns="http://www.w3.org/2000/svg" viewBox="0 0 400 300">
<rect width="400" height="300" fill="#0a0f0c"/>
<rect width="400" height="300" fill="url(#g-waveform-green)" opacity="0.5"/>
<defs><radialGradient id="g-waveform-green" cx="0.3" cy="0.2" r="1"><stop offset="0" stop-color="#14532d" stop-opacity="0.6"/><stop offset="1" stop-color="#0a0f0c" stop-opacity="0"/></radialGradient></defs>
<g transform="translate(0,75)"><rect x="20" y="113" width="12" height="74" rx="6" fill="#4ade80" opacity="0.46"/><rect x="42" y="48" width="12" height="204" rx="6" fill="#4ade80" opacity="0.84"/><rect x="64" y="74" width="12" height="152" rx="6" fill="#4ade80" opacity="0.69"/><rect x="86" y="83" width="12" height="134" rx="6" fill="#4ade80" opacity="0.64"/><rect x="108" y="100" width="12" height="100" rx="6" fill="#4ade80" opacity="0.54"/><rect x="130" y="105" width="12" height="90" rx="6" fill="#4ade80" opacity="0.51"/><rect x="152" y="122" width="12" height="56" rx="6" fill="#4ade80" opacity="0.41"/><rect x="174" y="73" width="12" height="154" rx="6" fill="#4ade80" opacity="0.69"/><rect x="196" y="53" width="12" height="194" rx="6" fill="#4ade80" opacity="0.81"/><rect x="218" y="132" width="12" height="36" rx="6" fill="#4ade80" opacity="0.35"/><rect x="240" y="115" width="12" height="70" rx="6" fill="#4ade80" opacity="0.45"/><rect x="262" y="115" width="12" height="70" rx="6" fill="#4ade80" opacity="0.45"/><rect x="284" y="102" width="12" height="96" rx="6" fill="#4ade80" opacity="0.53"/><rect x="306" y="47" width="12" height="206" rx="6" fill="#4ade80" opacity="0.84"/><rect x="328" y="61" width="12" height="178" rx="6" fill="#4ade80" opacity="0.76"/><rect x="350" y="71" width="12" height="158" rx="6" fill="#4ade80" opacity="0.71"/><rect x="372" y="115" width="12" height="70" rx="6" fill="#4ade80" opacity="0.45"/></g>
<text x="24" y="272" font-family="monospace" font-size="13" fill="#4ade80" opacity="0.85">~/garden/media</text>
<text x="376" y="272" font-family="monospace" font-size="13" fill="#4ade80" opacity="0.5" text-anchor="end">waveform-green</text>
</svg>