<svg xmlns="http://www.w3.org/2000/svg" viewBox="0 0 400 300">
<rect width="400" height="300" fill="#0f0d08"/>
<rect width="400" height="300" fill="url(#g-waveform-amber)" opacity="0.5"/>
<defs><radialGradient id="g-waveform-amber" cx="0.3" cy="0.2" r="1"><stop offset="0" stop-color="#92400e" stop-opacity="0.6"/><stop offset="1" stop-color="#0f0d08" stop-opacity="0"/></radialGradient></defs>
<g transform="translate(0,75)"><rect x="20" y="114" width="12" height="72" rx="6" fill="#fbbf24" opacity="0.46"/><rect x="42" y="45" width="12" height="210" rx="6" fill="#fbbf24" opacity="0.86"/><rect x="64" y="105" width="12" height="90" rx="6" fill="#fbbf24" opacity="0.51"/><rect x="86" y="109" width="12" height="82" rx="6" fill="#fbbf24" opacity="0.49"/><rect x="108" y="47" width="12" height="206" rx="6" fill="#fbbf24" opacity="0.84"/><rect x="130" y="114" width="12" height="72" rx="6" fill="#fbbf24" opacity="0.46"/><rect x="152" y="95" width="12" height="110" rx="6" fill="#fbbf24" opacity="0.57"/><rect x="174" y="49" width="12" height="202" rx="6" fill="#fbbf24" opacity="0.83"/><rect x="196" y="70" width="12" height="160" rx="6" fill="#fbbf24" opacity="0.71"/><rect x="218" y="73" width="12" height="154" rx="6" fill="#fbbf24" opacity="0.69"/><rect x="240" y="62" width="12" height="176" rx="6" fill="#fbbf24" opacity="0.76"/><rect x="262" y="45" width="12" height="210" rx="6" fill="#fbbf24" opacity="0.86"/><rect x="284" y="134" width="12" height="32" rx="6" fill="#fbbf24" opacity="0.34"/><rect x="306" y="131" width="12" height="38" rx="6" fill="#fbbf24" opacity="0.36"/><rect x="328" y="40" width="12" height="220" rx="6" fill="#fbbf24" opacity="0.88"/><rect x="350" y="42" width="12" height="216" rx="6" fill="#fbbf24" opacity="0.87"/><rect x="372" y="76" width="12" height="148" rx="6" fill="#fbbf24" opacity="0.68"/></g>
<text x="24" y="272" font-family="monospace" font-size="13" fill="#fbbf24" opacity="0.85">~/garden/media</text>
<text x="376" y="272" font-family="monospace" font-size="13" fill="#fbbf24" opacity="0.5" text-anchor="end">waveform-amber</text>
</svg>